<svg xmlns="http://www.w3.org/2000/svg" version="1.1" xmlns:xlink="http://www.w3.org/1999/xlink" id="Layer_1" x="0px" y="0px" viewBox="0 0 800 800" style="enable-background:new 0 0 800 800;" xml:space="preserve" width="800" height="800"><metadata><rdf:RDF xmlns:rdf="http://www.w3.org/1999/02/22-rdf-syntax-ns#" xmlns:dc="http://purl.org/dc/elements/1.1/"><rdf:Description><dc:creator>RealFaviconGenerator</dc:creator><dc:source>https://realfavicongenerator.net</dc:source></rdf:Description></rdf:RDF></metadata><style type="text/css">
	.st0{fill:#F15A2C;}
	.st1{fill:#9B2C2C;}
	.st2{fill:none;stroke:#000000;stroke-miterlimit:10;}
	.st3{fill:#D34531;}
	.st4{fill:#202535;}
	.st5{fill:#1A2538;}
	.st6{fill:none;stroke:#1A2538;stroke-miterlimit:10;}
	.st7{fill:#FCD6CA;}
	.st8{fill:#BCBEC0;}
	.st9{fill:#D52028;}
	.st10{fill:#EE2F2F;}
	.st11{fill:#231F20;}
	.st12{fill:#DD2428;}
	.st13{fill:#E57725;}
	.st14{fill:#F7931E;}
	.st15{fill:#EB7C23;}
	.st16{fill:#FEF0EC;}
	.st17{fill:#FFFFFF;}
	.st18{fill:#EF4037;}
</style><g>
	<path class="st0" d="M800,400c0,220.9-179.1,400-400,400S0,620.9,0,400S179.1,0,400,0S800,179.1,800,400"></path>
	<polygon class="st1" points="414.9,231.6 414.9,245.3 439.7,245.3 463.2,229.5 460.6,215.6 	"></polygon>
	<polygon class="st2" points="414.9,231.6 414.9,245.3 439.7,245.3 463.2,229.5 460.6,215.6 	"></polygon>
	<path class="st3" d="M469.6,200.2c0,0-8.4,36.1-44.3,35.9c-35.9-0.2-36.8-35.9-36.8-35.9s-11.8-2.2-11.3-17.6
		c0.5-15.4,11.1-12.3,11.1-12.3s1-17.8,12.5-26.2c11.6-8.4,30.6-14.7,30.6-14.7l22.4,11.3l29.1,29.9c0,0,12.8-0.7,9.9,14.9
		C489.8,201.2,478,207.5,469.6,200.2"></path>
	<path class="st2" d="M469.6,200.2c0,0-8.4,36.1-44.3,35.9c-35.9-0.2-36.8-35.9-36.8-35.9s-11.8-2.2-11.3-17.6
		c0.5-15.4,11.1-12.3,11.1-12.3s1-17.8,12.5-26.2c11.6-8.4,30.6-14.7,30.6-14.7l22.4,11.3l29.1,29.9c0,0,12.8-0.7,9.9,14.9
		C489.8,201.2,478,207.5,469.6,200.2z"></path>
	<path class="st4" d="M425.8,137.2c0,0-1.7,7-8.9,8.2c-7.2,1.2-20.7,4.3-28.6,25c0,0-3.1-18.5,5.5-34.4
		c8.7-15.9,29.1-17.8,37.8-17.8c0,0,3.5,0.8,2.4-1.4c-1.1-2.2-7.7-15.7,3.5-23.6c11.2-7.9,24.7-2.6,29.7,2.1
		c5,4.7,13.6,17.5,2.7,30.8c0,0-3.7,2.2-2.1,3.5c1.6,1.2,20.7,19.5,15,41.2c0,0-12.9,4.2-12.8,19.1c0,0-5.7-37.7-34.9-44
		C435.1,145.8,426.1,144.8,425.8,137.2"></path>
	<path class="st2" d="M482.8,170.6c0,0-12.4,3.5-12.8,19.1"></path>
	<path class="st5" d="M390.7,177.5c0,0,3.3-2.6,8.4-2.3c5.2,0.4,6.4,1.6,7.8,2.3c1.4,0.7,4.1,2.6,5.2,1c1.1-1.7-0.2-3.6-2.9-4.8
		C406.6,172.4,392.7,169.4,390.7,177.5"></path>
	<path class="st5" d="M432.5,175.6c0,0-2.4,2-0.6,3.5c1.8,1.5,3.2,0.3,3.9-0.6c0.7-0.8,8.5-3.5,15,0.6c0,0,3.9,2.8,1.6,0
		C450.1,176.3,441.6,170.8,432.5,175.6"></path>
	<path class="st5" d="M431.2,194.1c0,0,5,5.3,9.6,4.2c4.6-1.1,5.5-3.3,5.5-3.3s1.8-1.9,2.9-1c1.1,1,0.8,2.6,0,3.4
		C448.4,198.2,436.8,206.7,431.2,194.1"></path>
	<path class="st5" d="M414.7,184.1c0,0,0.7,12.9-3.3,17.8s-0.8,8.3,3.3,9.4c0,0-5.2-2.8-3.5-5.7
		C412.8,202.8,415.8,200.7,414.7,184.1"></path>
	<path class="st5" d="M411.3,193.8c0,0-6.2,4.1-9.6,2.6c-3.4-1.5-4.3-2.3-5.3-3.6c-1-1.2-1.6-1.4-2.5-1c-0.9,0.4-0.8,1.6,0.2,3.1
		c1,1.6,3.9,4.5,7.2,4.7C404.5,199.9,409.1,197.5,411.3,193.8"></path>
	<path class="st6" d="M412.5,218.8c0,0,8.2,7.5,18-1.6"></path>
	<path class="st1" d="M479.6,184.1c0,0,2.5-2.4,3.3,1c0.7,3.4-3.3,8.8-3.3,8.8s6.3-3.7,6.1-9.7C485.6,178.1,479.4,178.7,479.6,184.1
		"></path>
	<path class="st3" d="M499.1,684.2c0,1.1,1,20.9,1,20.9s28.4,1,28.6,0c0.2-1,2.6-12.8,2.6-17.7L499.1,684.2z"></path>
	<path class="st2" d="M499.1,684.2c0,1.1,1,20.9,1,20.9s28.4,1,28.6,0c0.2-1,2.6-12.8,2.6-17.7L499.1,684.2z"></path>
	<path class="st7" d="M531.2,703.2l-32.9-1v25.8c0,0-2.7,2.7-5.6,4.5c-2.9,1.8-18.6,14.8-21,17.2c-2.4,2.4-11.2,8.5-12,12.7
		c-0.8,4.2-3.9,8.8,3.7,8.8s46.4-6.6,53-7.4c6.6-0.8,11.7-1.9,13.6-8.7C531.9,748.4,534.1,710.4,531.2,703.2"></path>
	<path class="st8" d="M494.6,731.2c0,0,9.1,9.8,6.4,9c-2.7-0.8-10-6.5-10-6.5"></path>
	<path class="st2" d="M494.6,731.2c0,0,9.1,9.8,6.4,9c-2.7-0.8-10-6.5-10-6.5"></path>
	<path class="st8" d="M487.2,736.7c0,0,9.5,9.8,6.5,10c-3,0.2-10.9-6.4-10.9-6.4"></path>
	<path class="st2" d="M487.2,736.7c0,0,9.5,9.8,6.5,10c-3,0.2-10.9-6.4-10.9-6.4"></path>
	<path class="st8" d="M479.5,743c0,0,9.5,9.5,7.2,10.5c-2.2,1-11.7-6.7-11.7-6.7"></path>
	<path class="st2" d="M479.5,743c0,0,9.5,9.5,7.2,10.5c-2.2,1-11.7-6.7-11.7-6.7"></path>
	<path class="st2" d="M531.2,703.2l-32.9-1v25.8c0,0-2.7,2.7-5.6,4.5c-2.9,1.8-18.6,14.8-21,17.2c-2.4,2.4-11.2,8.5-12,12.7
		c-0.8,4.2-3.9,8.8,3.7,8.8s46.4-6.6,53-7.4c6.6-0.8,11.7-1.9,13.6-8.7C531.9,748.4,534.1,710.4,531.2,703.2z"></path>
	<path class="st9" d="M492,661.9c0,0-0.5,10.4,2.7,20.2c3.2,9.8,2.6,9.6,5.5,8.7c2.9-1,22.3-2.1,32.3-0.3c10,1.8,8.2-18.9,7.5-23.1
		C539.2,667.5,492,661.9,492,661.9"></path>
	<path class="st2" d="M492,661.9c0,0-0.5,10.4,2.7,20.2c3.2,9.8,2.6,9.6,5.5,8.7c2.9-1,22.3-2.1,32.3-0.3c10,1.8,8.2-18.9,7.5-23.1
		C539.2,667.5,492,661.9,492,661.9z"></path>
	<path class="st3" d="M638.3,186.7l-0.1-0.2c-0.1,0-0.2,0.1-0.3,0.1c-0.8,0.3-1.5,0.6-2.2,0.9c-5.9,2.3-20,8.3-20,8.3l12.4,22.9
		l1.2-1.5c6.1-6.4,10.5-5.2,13.5-4.6c3,0.6,15.6-1.1,15.6-1.1l3.6-1.2c0,0,8.2-24.8,10.2-24.8c-1.6,0.2-4.1-0.1-4.1-0.1v2.3h-8.5
		c-0.8,8.4-9.9,10.4-14.1,10.9l0,0"></path>
	<path class="st2" d="M638.3,186.7l-0.1-0.2c-0.1,0-0.2,0.1-0.3,0.1c-0.8,0.3-1.5,0.6-2.2,0.9c-5.9,2.3-20,8.3-20,8.3l12.4,22.9
		l1.2-1.5c6.1-6.4,10.5-5.2,13.5-4.6c3,0.6,15.6-1.1,15.6-1.1l3.6-1.2c0,0,8.2-24.8,10.2-24.8c-1.6,0.2-4.1-0.1-4.1-0.1v2.3h-8.5
		c-0.8,8.4-9.9,10.4-14.1,10.9l0,0"></path>
	<path class="st7" d="M683.4,167.3c0,0-4-4-6.3,0c-2.3,4-11.2,24.7-11.2,24.7L655.4,222c0,0-2.7,7.3,1.8,11.4
		c4.5,4.1,18.1,17.7,18.1,17.7l26.3-6.6c0,0-6.4-6.1-5.3-16.2c1.1-10.1-1.6-18.8-2.9-27c-1.3-8.2-5.1-25.2-5.1-25.2
		S687.2,169.8,683.4,167.3"></path>
	<path class="st8" d="M691.7,191.9c0,0-17.7,6.6-10.3,6.6c7.4-0.1,11.2-2.1,11.2-2.1"></path>
	<path class="st2" d="M691.7,191.9c0,0-17.7,6.6-10.3,6.6c7.4-0.1,11.2-2.1,11.2-2.1"></path>
	<path class="st8" d="M693.3,200.3c0,0-15.3,6.9-9.8,7.1c5.5,0.2,10.9-1,10.9-1"></path>
	<path class="st2" d="M693.3,200.3c0,0-15.3,6.9-9.8,7.1c5.5,0.2,10.9-1,10.9-1"></path>
	<path class="st8" d="M695.2,210.3c0,0-13.2,5.6-9.7,6.1l10.5-1.6"></path>
	<path class="st2" d="M695.2,210.3c0,0-13.2,5.6-9.7,6.1l10.5-1.6"></path>
	<path class="st2" d="M683.4,167.3c0,0-4-4-6.3,0c-2.3,4-11.2,24.7-11.2,24.7L655.4,222c0,0-2.7,7.3,1.8,11.4
		c4.5,4.1,18.1,17.7,18.1,17.7l26.3-6.6c0,0-6.4-6.1-5.3-16.2c1.1-10.1-1.6-18.8-2.9-27c-1.3-8.2-5.1-25.2-5.1-25.2
		S687.2,169.8,683.4,167.3z"></path>
	<path class="st3" d="M645.5,198.5l0.1,0.1c4.2-0.5,13.2-2.5,14.1-10.9h8.1l1-2.3c0,0,2,0.3,3.6,0.1c0.3,0,0.6-0.1,1-0.1
		c1.8-0.3,3.7-1.3,3.8-4.1c0.1-3.4-4.2-2.3-4.2-2.3l-18.5,1.2c-2.4,0-10,3.6-15.8,6"></path>
	<path class="st2" d="M645.5,198.5l0.1,0.1c4.2-0.5,13.2-2.5,14.1-10.9h8.1l1-2.3c0,0,2,0.3,3.6,0.1c0.3,0,0.6-0.1,1-0.1
		c1.8-0.3,3.7-1.3,3.8-4.1c0.1-3.4-4.2-2.3-4.2-2.3l-18.5,1.2c-2.4,0-10,3.6-15.8,6"></path>
	<path class="st9" d="M670.4,269.1c-0.7,0.7-0.4-15.6,1.9-17.8c2.3-2.2,7-8.3,23.5-8.2l5.1,0c0,0,7.7,8.7,7.8,19
		C708.6,262.1,678.8,261.2,670.4,269.1"></path>
	<path class="st2" d="M670.4,269.1c-0.7,0.7-0.4-15.6,1.9-17.8c2.3-2.2,7-8.3,23.5-8.2l5.1,0c0,0,7.7,8.7,7.8,19
		C708.6,262.1,678.8,261.2,670.4,269.1z"></path>
	<path class="st10" d="M520,331.6c0,0,26.3-4.2,46.2,3.2c19.9,7.4,29.5-2.6,41.4-3.2c11.9-0.6,16-1.7,19.3-1.2
		c3.2,0.5,12.5,1,17.3-6.4c4.8-7.4,5.8-8.2,9.8-11.6c4-3.4,6.3-8,6.1-13.3c-0.2-5.3,1.1-28.7,11.9-35.3c10.8-6.6,15.6-6.4,19.7-6.4
		c4.2,0,20.2-1,23.1,6.1c2.9,7.1,5.3,12,1.9,22.5c-3.4,10.4-5.6,37.1-6.4,45.3c-0.8,8.2-3,26.2-4.5,30.3
		c-1.4,4.2-1.6,10.9-19.9,19.4c0,0-47.5,24.9-78.2,29.9c-30.7,5-38.2,7.1-47.2,21.2c-9,14.1-11.6,41.7-12.2,55.9
		c-0.6,14.1-1.1,37.4-3.2,44.3c-2.1,6.9-3.7,31.1-1.8,44.8c1.9,13.6,6.4,49.6,7.1,58.4c0.6,8.8-0.2,29.1-6.6,33.5
		c-6.4,4.5-9.5,8.3-22.1,6.7c-12.7-1.6-27-2.9-33.7-10c-6.7-7.1-6.4-11.4-3.9-25.2c2.6-13.8,6.9-45.7,6.9-59.1
		c0-13.3-0.3-16.7-0.3-16.7s-8.8-15.2-15.2-37.4c-6.4-22.1-13.3-53.4-16.4-79.6c-3-26.2-3.7-34.3-3.7-34.3l43.5-60.8L520,331.6z"></path>
	<path class="st11" d="M514.9,341.3c0,0,4.1,7.2,10.6,6.5c6.5-0.7,15.3-9.6,23.4-11.2c8-1.7,12.8-1.9,16.3-1.2c0,0-12.2-1-23.2,7.1
		c-11,8.2-15.6,8.4-19.2,7C519.2,348.1,515.8,344.1,514.9,341.3"></path>
	<path class="st11" d="M631.7,338.7c0,0,14-2.3,20.5,4.3C652.2,343,644.8,332.4,631.7,338.7"></path>
	<path class="st11" d="M645.4,327.8c0,0,12,5.9,19.7,14.8C665.1,342.6,660.1,331.1,645.4,327.8"></path>
	<path class="st11" d="M657.8,319.7c0,0,20.9,16.9,27,29C684.8,348.7,677.8,328.2,657.8,319.7"></path>
	<path class="st11" d="M493.2,507.5c0,0,5.8,21.5,31.5,35C524.6,542.5,500.4,536.3,493.2,507.5"></path>
	<path class="st11" d="M505.7,551.8c0,0,7.2,4.7,9.6,5.3C515.3,557.1,510.5,557.3,505.7,551.8"></path>
	<path class="st11" d="M539.2,563.4c0,0-1.1,32.7-22,65.6C517.2,629,543.6,599,539.2,563.4"></path>
	<path class="st11" d="M520.5,652.6c0,0,4.7-13,13.8-18.6C534.3,634,522.7,634.6,520.5,652.6"></path>
	<path class="st12" d="M481.1,391.4c0,0,11.4,20.5,41.1,20.9c29.7,0.5,42.9,2.3,53.6,2.4c10.7,0.1,12,0,12,0s-13.9,1.5-21.1,9.4
		s-12.1,16.8-15.1,34.2c0,0-7.3-28.1-50.4-35.9c0,0-29.4-6.9-35.1-11.4l1.4-7.5L481.1,391.4z"></path>
	<path class="st2" d="M520,331.6c0,0,26.3-4.2,46.2,3.2c19.9,7.4,29.5-2.6,41.4-3.2c11.9-0.6,16-1.7,19.3-1.2
		c3.2,0.5,12.5,1,17.3-6.4c4.8-7.4,5.8-8.2,9.8-11.6c4-3.4,6.3-8,6.1-13.3c-0.2-5.3,1.1-28.7,11.9-35.3c10.8-6.6,15.6-6.4,19.7-6.4
		c4.2,0,20.2-1,23.1,6.1c2.9,7.1,5.3,12,1.9,22.5c-3.4,10.4-5.6,37.1-6.4,45.3c-0.8,8.2-3,26.2-4.5,30.3
		c-1.4,4.2-1.6,10.9-19.9,19.4c0,0-47.5,24.9-78.2,29.9c-30.7,5-38.2,7.1-47.2,21.2c-9,14.1-11.6,41.7-12.2,55.9
		c-0.6,14.1-1.1,37.4-3.2,44.3c-2.1,6.9-3.7,31.1-1.8,44.8c1.9,13.6,6.4,49.6,7.1,58.4c0.6,8.8-0.2,29.1-6.6,33.5
		c-6.4,4.5-9.5,8.3-22.1,6.7c-12.7-1.6-27-2.9-33.7-10c-6.7-7.1-6.4-11.4-3.9-25.2c2.6-13.8,6.9-45.7,6.9-59.1
		c0-13.3-0.3-16.7-0.3-16.7s-8.8-15.2-15.2-37.4c-6.4-22.1-13.3-53.4-16.4-79.6c-3-26.2-3.7-34.3-3.7-34.3l43.5-60.8L520,331.6z"></path>
	<path class="st3" d="M289.9,265.4c0-0.4-9.5-17.8-10.5-24c0,0-33.9,2.6-44.7-18.1c0,0-2.8-4,2.5-3.1c5.3,0.8,17.7,7,21.9,4.5
		c4.2-2.5,2.6-3.4,0.1-6c-2.5-2.6-5.4-2.4-6.7-2.9c-1.3-0.5-10.5-4.3-5.1-6.1c5.4-1.8,11.6,1.1,16.5,3.6c4.9,2.5,19.5,10.8,22.4,12
		c2.9,1.2,15.9,7.5,22.6,15.3l1.4,4.9L289.9,265.4z"></path>
	<path class="st2" d="M289.9,265.4c0-0.4-9.5-17.8-10.5-24c0,0-33.9,2.6-44.7-18.1c0,0-2.8-4,2.5-3.1c5.3,0.8,17.7,7,21.9,4.5
		c4.2-2.5,2.6-3.4,0.1-6c-2.5-2.6-5.4-2.4-6.7-2.9c-1.3-0.5-10.5-4.3-5.1-6.1c5.4-1.8,11.6,1.1,16.5,3.6c4.9,2.5,19.5,10.8,22.4,12
		c2.9,1.2,15.9,7.5,22.6,15.3l1.4,4.9L289.9,265.4z"></path>
	<path class="st13" d="M597.1,202.4c0,0,11.4-9.3,20.2-10.5c0,0,12.6,12.6,12.4,31.8c0,0-12.2,9.4-18.5,9.6L597.1,202.4z"></path>
	<path class="st2" d="M597.1,202.4c0,0,11.4-9.3,20.2-10.5c0,0,12.6,12.6,12.4,31.8c0,0-12.2,9.4-18.5,9.6L597.1,202.4z"></path>
	<path class="st13" d="M309.6,234.4c0,0,13.5,8.5,18.8,16.1L318,272.8l-16.9,9.6l-2.4-1.2c0,0-12.6-12.2-14.5-15.4
		c0,0,12.5-7.7,16.5-13.6C304.8,246.4,308.8,242.7,309.6,234.4"></path>
	<path class="st2" d="M309.6,234.4c0,0,13.5,8.5,18.8,16.1L318,272.8l-16.9,9.6l-2.4-1.2c0,0-12.6-12.2-14.5-15.4
		c0,0,12.5-7.7,16.5-13.6C304.8,246.4,308.8,242.7,309.6,234.4z"></path>
	<path class="st14" d="M411.3,253.3c0,0-21.6,0.2-28,3.9c-6.4,3.7-17.8,8.4-26,3.6c-8.2-4.9-21-14.3-24.2-14.5
		c-3.2-0.2-6.1,1.6-6.1,1.6s-0.6,18.6-28.1,33.4c0,0-3.4,7.5,1.3,14.8c4.7,7.2,16.1,27.9,52.2,35.3c36.1,7.4,44.6,4.7,44.6,4.7
		s11.2,39,32.9,64.4c0,0,0.8,10.7,6.4,15.2c5.6,4.5,14,5.9,23.6,0c9.6-5.9,28.4-23.3,32.7-34.8c4.3-11.6,21.7-48.5,44.5-49.9
		c0,0-4-4.2-10.1-7.7c-6.1-3.5-18.3-10.8-15.7-17.7c2.6-6.9,11.1-9.6,15.2-11.4c4.2-1.8,49.1-24.1,64.5-36.6
		c15.4-12.5,21.8-18.8,22.3-24.6c0.5-5.8-0.6-7.7-1.4-9.6c-0.8-1.9-5.6-10.9-6.9-14.8c-1.3-3.9-3.7-8-10.4-8.2
		c-6.7-0.2-29.7,8.5-33.9,10.4c-4.2,1.9-36.8,12.5-51,15.1c-14.3,2.6-32.1,7.9-40.8,12.8C460.1,243.7,411.3,253.3,411.3,253.3"></path>
	<path class="st15" d="M349.6,330.7c0,0,6.8-0.2,13.7-12.8c6.9-12.7,14.9-17.9,20-17.9c0,0,3.2,15.9,7.6,23
		c4.3,7.1,5.5,11.3,5.9,12.9c0,0-15.4,1.2-22-0.8C368.3,333.2,351.2,331.1,349.6,330.7"></path>
	<path class="st15" d="M526.9,323.1c0,0-18.5,2.1-24.7-9.5c-6.2-11.6-6.8-22,2.4-30.7c9.1-8.7,41.2-15.3,56.2-25.6
		c14.9-10.2,44.9-26.6,48.5-28.2l1.9,4.1l2.1-0.4c0,0-0.3,2-0.9,3.2c-0.6,1.2-3,5.9-11.6,13.1c-8.5,7.2-23.7,19.2-35.7,24.7
		c-11.9,5.6-25.3,14.7-37.7,19.7c-12.5,5-14.1,7.9-15.6,10.4c-1.5,2.5-2.6,6.5,5.1,12.5C524.6,322.6,526.9,323.1,526.9,323.1"></path>
	<path class="st2" d="M411.3,253.3c0,0-21.6,0.2-28,3.9c-6.4,3.7-17.8,8.4-26,3.6c-8.2-4.9-21-14.3-24.2-14.5
		c-3.2-0.2-6.1,1.6-6.1,1.6s-0.6,18.6-28.1,33.4c0,0-3.4,7.5,1.3,14.8c4.7,7.2,16.1,27.9,52.2,35.3c36.1,7.4,44.6,4.7,44.6,4.7
		s11.2,39,32.9,64.4c0,0,0.8,10.7,6.4,15.2c5.6,4.5,14,5.9,23.6,0c9.6-5.9,28.4-23.3,32.7-34.8c4.3-11.6,21.7-48.5,44.5-49.9
		c0,0-4-4.2-10.1-7.7c-6.1-3.5-18.3-10.8-15.7-17.7c2.6-6.9,11.1-9.6,15.2-11.4c4.2-1.8,49.1-24.1,64.5-36.6
		c15.4-12.5,21.8-18.8,22.3-24.6c0.5-5.8-0.6-7.7-1.4-9.6c-0.8-1.9-5.6-10.9-6.9-14.8c-1.3-3.9-3.7-8-10.4-8.2
		c-6.7-0.2-29.7,8.5-33.9,10.4c-4.2,1.9-36.8,12.5-51,15.1c-14.3,2.6-32.1,7.9-40.8,12.8C460.1,243.7,411.3,253.3,411.3,253.3z"></path>
	<path class="st13" d="M407.9,238.5c0,0,13.5,6.9,31,2.2c17.5-4.7,28.7-20.1,28.7-20.1s5.3,4.7,4.5,18.5c0,0-15.1,18.9-39.5,21.2
		c-24.4,2.2-26.3-6.7-26.3-6.7S406.2,242.2,407.9,238.5"></path>
	<path class="st2" d="M407.9,238.5c0,0,13.5,6.9,31,2.2c17.5-4.7,28.7-20.1,28.7-20.1s5.3,4.7,4.5,18.5c0,0-15.1,18.9-39.5,21.2
		c-24.4,2.2-26.3-6.7-26.3-6.7S406.2,242.2,407.9,238.5z"></path>
	<path class="st2" d="M673.3,185.5c-0.3,0.1-0.7,0.1-1,0.1C672.6,185.5,672.9,185.5,673.3,185.5z"></path>
	<polyline class="st2" points="638.3,186.7 637.9,186.6 637.9,186.6 	"></polyline>
	<line class="st2" x1="645.5" y1="198.5" x2="645.5" y2="198.5"></line>
	<path class="st11" d="M590,225.2c-0.3-0.8,0.6,14.7-4.2,23.1C585.7,248.3,595.6,240.8,590,225.2"></path>
	<path class="st11" d="M559.6,255.7c0.4-1.1-11.3,19.6-28.9,33C530.7,288.7,551.7,276.4,559.6,255.7"></path>
	<path class="st11" d="M555.3,236.7c0,0-9.9,37-44.9,51.2C510.4,287.9,547.3,278.4,555.3,236.7"></path>
	<path class="st11" d="M491.9,236.7c0,0-3.9,57,20.9,63.3C512.8,300,495.4,299.1,491.9,236.7"></path>
	<path class="st11" d="M489.2,303.5c0,0,8.5,2.9,17.5,2.6C506.7,306.1,497.3,309.5,489.2,303.5"></path>
	<path class="st11" d="M492.7,316.5c0,0,13,1.9,20.1,0C512.8,316.5,503.1,322.6,492.7,316.5"></path>
	<path class="st11" d="M506.7,331.6c0,0-15.4,5.9-22.8,28.4C483.9,360,497.5,338.5,506.7,331.6"></path>
	<path class="st11" d="M476.5,319.2c0,0-1.3,29.9-28.7,50.3C447.7,369.5,474.9,362.6,476.5,319.2"></path>
	<path class="st11" d="M467.5,294.2c0,0-0.6,35.6-15.6,57.6C451.9,351.8,470.2,342.4,467.5,294.2"></path>
	<path class="st11" d="M386.8,260.7c0,0-10.4,36.1,2.4,57.2C389.2,317.9,369.7,298.5,386.8,260.7"></path>
	<path class="st11" d="M374.2,282.5c0,0-5.9,18.3,0.6,35.4C374.9,317.9,364,302,374.2,282.5"></path>
	<path class="st2" d="M431.4,400.4c0,0,21.3-0.6,34.8-13.2C466.2,387.2,453.5,405.1,431.4,400.4z"></path>
	<path class="st11" d="M466.2,411c0,0,25.5,13.2,63.2,11.2c37.7-2.1,48.8-5.5,48.8-5.5s-41.4,10.4-63.9,7.7
		C491.9,421.7,473.1,416.2,466.2,411"></path>
	<path class="st16" d="M227.6,516.9v-19.3h7.6c3.8,0,6.4,2,6.4,5.6c0,3.3-2.2,5.3-5.5,5.4v0.2c1.2,0.4,1.9,1.2,2.6,2.4l3.2,5.8h-2.3
		l-3-5.4c-0.9-1.7-1.9-2.4-4.3-2.4h-2.7v7.9H227.6z M229.6,507.3h5.9c2.9,0,4.1-1.2,4.1-3.9c0-2.6-1.3-3.9-4.1-3.9h-5.9V507.3z"></path>
	<path class="st16" d="M243.8,509.8c0-4.3,2.6-7.4,6.7-7.4c4,0,6.5,3.1,6.5,7.4c0,4.3-2.6,7.4-6.5,7.4
		C246.4,517.2,243.8,514.1,243.8,509.8z M255,509.8c0-3.5-1.3-5.5-4.6-5.5c-3.4,0-4.7,2-4.7,5.5c0,3.5,1.3,5.6,4.7,5.6
		C253.7,515.4,255,513.4,255,509.8z"></path>
	<path class="st16" d="M259.8,509.8c0-4.3,2.6-7.4,6.7-7.4c4,0,6.5,3.1,6.5,7.4c0,4.3-2.6,7.4-6.5,7.4
		C262.4,517.2,259.8,514.1,259.8,509.8z M271.1,509.8c0-3.5-1.3-5.5-4.6-5.5c-3.4,0-4.7,2-4.7,5.5c0,3.5,1.3,5.6,4.7,5.6
		C269.7,515.4,271.1,513.4,271.1,509.8z"></path>
	<path class="st16" d="M277.2,512.9v-8.4h-2.3v-1.8h2.3l0.5-3.6h1.5v3.6h4.3v1.8h-4.3v8.5c0,1.7,0.7,2,2.5,2h1.8v1.7
		c-0.5,0.1-1.3,0.2-2.3,0.2C278.7,517,277.2,515.9,277.2,512.9z"></path>
	<path class="st16" d="M285.2,509.8c0-4.3,2.5-7.4,6.4-7.4c3.3,0,6,2.1,6,6.3c0,0.7-0.1,1.3-0.1,1.7h-10.4c0.1,3.1,1.3,5,4.5,5
		c2.8,0,3.9-1.3,3.9-3v-0.2h2v0.2c0,2.7-2.4,4.8-5.9,4.8C287.4,517.2,285.2,514.1,285.2,509.8z M287.1,508.9h8.6
		c0.1-3.4-1.5-4.7-4.2-4.7C288.4,504.2,287.2,506,287.1,508.9z"></path>
	<path class="st16" d="M300.5,509.8c0-4.5,2.1-7.4,5.8-7.4c2.6,0,4.3,1.4,4.9,3v-7.8h2v19.3h-1.8v-2.7h-0.1c-0.6,1.8-2.2,3-4.8,3
		C302.7,517.2,300.5,514.3,300.5,509.8z M306.9,515.4c2.7,0,4.4-1.5,4.4-4.4v-2.4c0-2.9-1.6-4.4-4.4-4.4c-2.7,0-4.4,1.3-4.4,5.6
		C302.5,514.2,304.1,515.4,306.9,515.4z"></path>
	<path class="st16" d="M323.2,516.9v-19.3h2v19.3H323.2z"></path>
	<path class="st16" d="M329.4,516.9v-14.2h1.8v2.9h0.1c0.5-1.5,2.1-3.2,4.9-3.2c3.5,0,5.1,2.4,5.1,5.8v8.7h-2v-8.3
		c0-3.1-1-4.4-3.8-4.4c-2.7,0-4.2,1.3-4.2,4.5v8.2H329.4z"></path>
	<path class="st16" d="M349.9,510.4v-1.2h2.1v1.4c0,3.1,0.9,4.6,4.4,4.6c3.5,0,4.4-1.6,4.4-4.6v-13h2.1v12.8c0,3.8-1.9,6.8-6.4,6.8
		C351.8,517.2,349.9,514.3,349.9,510.4z"></path>
	<path class="st16" d="M366,509.8c0-4.3,2.6-7.4,6.7-7.4c4,0,6.5,3.1,6.5,7.4c0,4.3-2.6,7.4-6.5,7.4
		C368.7,517.2,366,514.1,366,509.8z M377.3,509.8c0-3.5-1.3-5.5-4.6-5.5c-3.4,0-4.7,2-4.7,5.5c0,3.5,1.3,5.6,4.7,5.6
		C376,515.4,377.3,513.4,377.3,509.8z"></path>
	<path class="st16" d="M381.9,521.6V520h1.6c1.2,0,1.7-0.3,2.2-1.4l0.8-1.8l-5.9-14h2.2l3.2,7.9l1.4,3.5h0.2l1.4-3.5l3-7.9h2.2
		l-6.7,16.5c-0.9,2.2-2.2,2.6-3.7,2.6C383,521.8,382.3,521.7,381.9,521.6z"></path>
	<path class="st17" d="M140.4,487.8c0.6-2.4,0.9-5.6,0.9-9.5c0-5.9-0.9-14.8-2.7-26.7c-1.9-11.9-4.4-25.3-7.8-40.3l-8.8-36.4
		c-6.3-2.4-12.4-3.7-18.4-3.7c-4.4,0-10.2,1.1-17.2,3.4c-7.2,2.3-10.9,7.4-11.2,15.4c1,10.1,4.6,16.7,11.1,20
		c4.4,2.3,8.7,3.4,12.8,3.4c1.8,0,3.6-0.2,5.4-0.6c3.5-1,6-2.9,7.4-5.5c0.8-1.6,1.3-3.3,1.3-4.9c0-0.9-0.3-2.3-0.8-4
		c-0.6-1.7-2.6-2.8-6-3.3c-0.5-0.1-0.9-0.1-1.4-0.1c-1.9,0-3.5,0.7-3.9,2.3c-0.1,0.4-0.1,0.7-0.1,1.2c0,1.3,0.7,4.2,2,6l0.5,0.8
		c-2.1,0.8-4,1.2-5.6,1.2c-1.4,0-4.3-0.1-6.8-2.7c-2.6-2.5-4.1-6-4.5-8.3l-0.5-1.7c2.1-8.7,6.3-13.6,12.3-14.7
		c1.3-0.3,2.5-0.4,3.8-0.4c4.8,0,9.8,1.8,15.1,5.5s8.5,9.1,9.8,15.9c0.2,1,0.3,1.9,0.3,2.9c0,5.9-3.3,11.9-9.8,18
		c-8.5,6.8-17,10.2-25.3,10.2c-2.4,0-7-0.8-13.6-2.4c-6.6-1.5-12.6-7.2-18.1-16.8c-2.9-5.1-4.4-10.5-4.4-16.4
		c0-5.2,1.2-10.7,3.4-16.5c5.2-10.4,13.6-17.1,25.1-20.3c9.3-2.5,18.8-3.8,28.1-3.8c2.1,0,6.6,0.2,13.5,0.6
		c6.8,0.5,12.9,1.2,18.1,2.4h3.4l20,98.7l20.6-98.7h24.4l-19.1,78.4c-2.2,11.2-3.8,21.6-4.8,30.9c-0.5,4.4-0.7,8.3-0.7,11.6
		c0,3.7,0.3,6.6,0.9,8.9h-8l-0.1,0.3l-15-0.3H140.4z"></path>
	<path class="st17" d="M244.1,451c0-5.8,0.3-11.6,0.8-17.2c0.8-8.9,1.7-16.2,2.8-22.1l1.5-8.8h-23.3c3.5,16,5.2,30.1,5.2,42.5
		s-0.9,22.3-2.6,29.9l-2.6,11.3h23.3c-2.8-7.5-4.4-14.5-4.7-21C244.3,459.3,244.1,454.4,244.1,451"></path>
	<path class="st17" d="M261.2,369.6c0,6.5-2.3,12.1-6.9,16.7c-4.7,4.7-10.3,6.9-16.7,6.9c-6.5,0-12-2.3-16.7-6.9
		c-4.7-4.7-6.9-10.3-6.9-16.7c0-6.5,2.3-12,6.9-16.7c4.7-4.7,10.2-6.9,16.7-6.9c6.5,0,12.1,2.3,16.7,6.9
		C258.9,357.5,261.2,363.1,261.2,369.6"></path>
	<path class="st17" d="M271.3,486.6l3.1-18.4c2-12.3,3.1-28.6,3.1-48.7c0-20.1-2-43.3-6.2-69.3h27.7l-1.8,14.3
		c-1.3,9.6-2.3,21.5-3.3,35.9c-0.6,9.2-1,18.5-1,28.1c0,5.4,0.2,13.3,0.5,23.8c0.3,10.6,2.2,22,5.5,34.3H271.3z"></path>
	<path class="st17" d="M319.4,481.2c-4.1-4-6.2-9.7-6.2-17.2c0-9.4,3.1-16.7,9.4-21.8c6.2-5.2,17.5-8.2,34-9.2v-3.2
		c0-5.6-0.6-9.6-1.7-11.7c-1.2-2.1-3.4-3.2-6.6-3.2c-6,0-9.3,4.3-9.9,12.9c-2.5,2.1-4.7,3.6-6.7,4.4c-1.7,0.6-3.2,0.9-4.6,0.9
		c-0.7,0-2.9,0-5.3-1.6c-2.5-1.5-4.1-3.5-5-4.9l-0.6-1c1-8.5,4.7-15,10.9-19.6c6.2-4.5,13.9-6.8,23.2-6.8c7.9,0,14.3,1.5,19.1,4.5
		c4.8,3,7.8,6.6,9.1,10.6c1.2,4.1,1.8,10.3,1.8,18.7v29.4c4.2-2.3,7.1-5.7,8.5-10.2c0.9-3.2,2-4.8,3.4-4.8c0.4,0,1.1,0.3,2.3,0.9
		c1.2,0.6,1.9,3.3,2.4,8c0.1,0.6,0.1,1.1,0.1,1.8c0,4.2-1.4,9.3-4.1,15.1c-4.1,7.7-9.9,11.4-15.8,12.8c-2.7,0.6-5.3,0.9-7.6,0.9
		c-0.5,0-3.6,0-6.8-0.7l-2.4-0.6c-1.1-2.4-1.7-6.8-1.7-13.2c-5.2,9.9-12.9,14.7-23.1,14.7C328.9,487.1,323.5,485.1,319.4,481.2
		 M337.5,460.9c0,7.1,2.7,10.7,7.9,10.7c2.9,0,5.4-1.6,7.7-4.8c2.3-3.2,3.4-9.1,3.4-17.7V445c-6.8,0.8-11.7,2.3-14.6,4.6
		C339,451.8,337.5,455.6,337.5,460.9"></path>
	<path class="st18" d="M237.1,360.8c3-0.8,6.5-0.4,8.9,1.6c2.4,2,3.5,5.6,2.1,8.4c-1.4,2.9-4.9,4.1-8.1,4.5
		c-3.8,0.4-7.9-0.1-11.2-2.1c-3.3-2.1-5.5-6-5-9.8c0.6-4.3,4.4-7.6,8.5-9.1c3.6-1.3,7.6-1.6,11.3-0.6c3.7,1,7.1,3.2,9.3,6.2
		c3.5,4.7,3.9,11.7,0.4,16.2c-3,3.8-8.1,5.4-12.9,6.1c-4.8,0.8-9.9,0.9-14.4-1c-4.5-1.9-8.3-6.2-8.3-11.1c0-2.9,1.6-6,4.4-6.6
		c1-0.2,2.1-0.1,2.9,0.5c0.8,0.6,1.1,1.9,0.5,2.7c-1.3-0.6-3,0.3-3.6,1.6c-0.6,1.3-0.4,2.9,0.2,4.3c1.1,2.7,3.3,4.8,5.9,6.1
		c2.6,1.3,5.5,1.8,8.4,2c2.7,0.1,5.5-0.2,8.1-1.2c4.2-1.8,7.4-5.9,7.9-10.4c0.5-4.5-1.8-9.3-5.8-11.6c-2.1-1.2-4.6-1.7-7-1.9
		c-2.1-0.2-4.3-0.1-6.3,0.5c-2,0.6-3.9,1.9-5,3.7c-1.5,2.7-1,6.3,0.9,8.8c1.9,2.5,4.9,4,8,4.6c2.4,0.5,5.1,0.4,6.9-1.3
		c1.5-1.4,1.8-3.8,1-5.7c-0.8-1.9-2.7-3.2-4.7-3.4c-2-0.3-4.1,0.4-5.7,1.7c-0.9,0.7-1.6,1.6-2.7,2c-0.6,0.2-2,0.2-2.4-0.5
		c-0.5-0.9,0.9-1.6,1.6-2.2C232.8,362.6,234.9,361.4,237.1,360.8"></path>
</g></svg>